<svg class="icon" viewBox="0 0 1024 1024" xmlns="http://www.w3.org/2000/svg" width="200" height="200"><path d="M866.2 570.9l61.8-14.5-57.4-27.1 5-62.3-43.8 45.5-58.8-24.1 30.3 54.9-41.3 47.6 62.5-11.4 33.3 53.5zM746.8 276.1l75.6-41-84.6-15.7-15.6-84.4-41 75.5-85.2-11.3 59.3 62.4-37.1 77.6 77.5-37.1 62.4 59.3zm-234.2 159l19.3 35-26.4 30.5 39.9-7.4 21 34.2 5.3-39.7 39.4-9.2-36.6-17.1 3.1-39.7-27.8 28.9zm-406.4 349l22 40.1L98 858.9l45.7-8.4 24 39 6-45.3 45-10.5-41.8-19.6 3.6-45.3-31.9 33z" fill="#B3D8FF"/><path d="M324.8 274.2c-141.4 140.4-141.4 368.1 0 508.5s370.9 140.4 512.3 0c32-31.7 56.3-68 73.7-106.6-133.1 59.7-295.3 35.5-404.8-73.2S372.2 333.4 432.1 201c-38.8 17.3-75.3 41.6-107.3 73.2z" fill="#FED430"/></svg>