<svg class="icon" viewBox="0 0 1024 1024" xmlns="http://www.w3.org/2000/svg" width="200" height="200"><path d="M512.737 356.352A237.568 237.568 0 0 0 275.17 593.92a28.672 28.672 0 1 1-57.344 0 294.912 294.912 0 0 1 589.824 0 28.672 28.672 0 1 1-57.344 0 237.568 237.568 0 0 0-237.568-237.568z" fill="#222628"/><path d="M512 225.28h-1.393a40.96 40.96 0 0 1-.327-81.92h3.522a40.96 40.96 0 0 1-.327 81.92H512zm-259.359 49.03a40.96 40.96 0 0 1-.205 57.917l-1.024 1.024a40.96 40.96 0 0 1-57.917-57.918l1.229-1.229a40.96 40.96 0 0 1 57.917.205zm518.84 0a40.96 40.96 0 0 1 57.959-.206l1.229 1.23a40.96 40.96 0 1 1-57.918 57.917l-1.024-1.024a40.96 40.96 0 0 1-.245-57.918z" fill="#448BF4"/><path d="M102.4 606.208a28.672 28.672 0 0 1 28.672-28.672h761.856a28.672 28.672 0 1 1 0 57.344H131.072a28.672 28.672 0 0 1-28.672-28.672zm122.88 122.88a28.672 28.672 0 0 1 28.672-28.672h516.096a28.672 28.672 0 1 1 0 57.344H253.952a28.672 28.672 0 0 1-28.672-28.672z" fill="#222628"/></svg>