<svg class="icon" viewBox="0 0 1024 1024" xmlns="http://www.w3.org/2000/svg" width="200" height="200"><path d="M960 512L832 640v192H640L512 960 384 832H192V640L64 512l128-128V192h192L512 64l128 128h192v192z" fill="#FFD878"/><path d="M736 512a224 224 0 1 0-448 0 224 224 0 1 0 448 0z" fill="#FFE4A9"/><path d="M512 109.248L626.752 224H800v173.248L914.752 512 800 626.752V800H626.752L512 914.752 397.248 800H224V626.752L109.248 512 224 397.248V224h173.248L512 109.248M512 64L384 192H192v192L64 512l128 128v192h192l128 128 128-128h192V640l128-128-128-128V192H640L512 64z" fill="#4D5152"/><path d="M512 320c105.888 0 192 86.112 192 192s-86.112 192-192 192-192-86.112-192-192 86.112-192 192-192m0-32a224 224 0 1 0 0 448 224 224 0 0 0 0-448z" fill="#4D5152"/></svg>