<svg class="icon" viewBox="0 0 1024 1024" xmlns="http://www.w3.org/2000/svg" width="200" height="200"><path d="M249.622 950.506s156.768-7.835 260.953-8.789c115.759-1.059 300.164 8.79 300.164 8.79l191.318 21.632S703.16 989.85 510.575 989.716c-188.893-.131-463.764-17.577-463.764-17.577l202.81-21.633z" opacity=".5"/><path d="M176.415 185.473c-27.113 85.425-38.956 192.137-41.973 267.337l-.175 4.28-2.452 3.514c-55.84 79.904-64.29 148.427-55.863 214.859 7.715 60.81 43.394 107.28 86.46 142.347 43.117 35.109 92.529 57.848 125.18 71.15 52.908 21.554 144.662 43.07 246.31 41.938 101.587-1.13 211.658-24.848 302.607-92.201 118.037-87.412 133.029-272.282 44.652-377.04l-3.04-3.607-.363-4.702c-13.795-178.711-52.078-279.8-91.431-334.66-39.316-54.805-78.582-62.453-96.745-59.062-4.85.907-12.77 5.977-23.128 18.227-9.839 11.633-20.015 27.481-29.862 45.393-19.655 35.746-36.932 77.707-46.783 105.381l-4.628 12.999-13.248-3.862c-22.586-6.583-51.726-9.836-79.81-10.559-28.087-.72-53.863 1.118-69.5 4.122l-12.087 2.32-4.356-11.51c-26.996-71.366-52.119-115.179-72.025-140.872-9.957-12.85-18.383-20.878-24.813-25.571-6.428-4.693-9.717-5.237-9.989-5.281l-.014-.003-.802-.012-.796-.096c-26.764-3.292-49.614 8.007-69.983 31.873-20.714 24.271-37.753 60.477-51.343 103.298zm124.223-164.29c-38.904-4.536-70.525 13.165-95.133 42-24.4 28.594-42.897 69.077-56.975 113.437-27.707 87.3-39.808 194.53-43.143 270.76-58.254 85.024-67.572 159.922-58.459 231.763 8.988 70.843 50.498 123.483 97.011 161.356 46.46 37.83 99.015 61.867 132.614 75.557 56.601 23.06 152.225 45.27 257.674 44.096 105.516-1.173 222.26-25.79 319.695-97.944 130.727-96.809 148.118-297.993 52.643-415.741-14.304-178.548-53.096-284.374-96.467-344.83-43.783-61.037-93.342-76.844-125.885-70.774-15.427 2.882-29 14.971-40.1 28.096-11.617 13.736-22.867 31.469-33.157 50.19-17.805 32.38-33.56 69.214-44.102 97.123-23.14-5.208-49.456-7.683-73.98-8.312-23.46-.603-46.076.462-63.599 2.718-26.07-66.7-50.878-110.08-71.993-137.333-11.132-14.366-21.46-24.547-30.687-31.28-8.538-6.234-17.467-10.49-25.957-10.883z" fill="#835104"/><path d="M301.349 49.737C172.646 33.938 139.053 305.277 133.12 452.944 76.417 533.95 64.436 604.3 73.055 672.098c16.288 128.19 150.563 192.998 215.18 219.276 106.8 43.441 365.501 85.15 549.23-50.682 121.98-90.179 133.02-279.692 41.712-387.748C852.07 102.362 735.53 49.298 686.08 58.514c-39.562 7.373-82.839 126.54-102.4 181.395-47.353-13.78-137.968-15.814-171.154-9.45C359.25 89.857 310.606 50.872 301.349 49.737z" fill="#FFF2DF"/><path d="M573.449 592.206c0 21.656-27.242 52.73-60.846 52.73-33.602 0-60.843-31.074-60.843-52.73 0-21.657 27.24-39.21 60.843-39.21 33.604 0 60.846 17.553 60.846 39.21z" fill="#5A3703"/><path d="M363.303 640.948a11.703 11.703 0 0 1 15.378 6.12c2.686 6.244 10.076 17.19 21.873 24.51 11.252 6.983 26.943 10.988 47.987 3.563 48.918-17.268 88.15-13.102 127.254-.068 13.599 4.532 31.443 4.348 46.768-.76 15.445-5.15 25.81-14.316 28.81-25.618a11.703 11.703 0 0 1 22.624 6.004c-5.79 21.823-24.494 35.304-44.032 41.817-19.661 6.554-42.719 7.045-61.572.76-35.258-11.752-69.038-15.251-112.063-.064-28.076 9.907-51.145 4.787-68.12-5.746-16.428-10.196-26.73-25.158-31.027-35.14a11.703 11.703 0 0 1 6.12-15.378z" fill="#835104"/><path d="M515.988 662.534c-28.807 0-48.97 5.787-64.521 10.252l-3.145.898c-15.694 4.464-24.623 6.243-36.519 2.504l-19.277-6.062-3.307 19.936c-4.286 25.846-2.72 65.673 13.883 100.18 17.232 35.81 50.68 65.442 107.008 66.943 33.777.898 60.214-7.7 80.238-22.666 19.839-14.827 32.001-34.86 39.269-54.626 7.247-19.713 9.877-39.807 10.301-55.995.21-8.134-.129-15.498-.793-21.583-.614-5.612-1.641-11.492-3.405-15.901l-5.56-13.9-14.604 3.297c-16.923 3.82-32.8 1.392-49.094-2.762-4.081-1.039-8.084-2.16-12.185-3.306l-.2-.056a493.217 493.217 0 0 0-12.112-3.28c-8.08-2.042-16.998-3.873-25.977-3.873z" fill="#835104"/><path d="M515.985 718.166c-53.643 0-91.268 30.647-103.436 48 4.055 20.956 27.894 68.69 92.617 73.01 67.604 4.518 96.674-32.665 109.52-68.496-10.14-15.547-42.592-52.514-98.701-52.514z" fill="#FCB0A2"/><path d="M297.624 605.725c32.856 0 59.492-13.013 59.492-29.07 0-16.053-26.636-29.07-59.492-29.07s-59.491 13.017-59.491 29.07c0 16.057 26.632 29.07 59.491 29.07zm429.96 0c-32.856 0-59.491-13.013-59.491-29.07 0-16.053 26.635-29.07 59.491-29.07s59.492 13.017 59.492 29.07c0 16.057-26.636 29.07-59.492 29.07z" fill="#F79A99" opacity=".5"/><path d="M355.574 562.48c24.892-4.406 42.765-21.018 39.918-37.107-2.847-16.085-25.336-25.553-50.231-21.147-24.892 4.407-42.766 21.019-39.916 37.107 2.847 16.086 25.334 25.553 50.229 21.147zm309.084-.087c-23.49-4.16-40.357-19.837-37.669-35.018 2.686-15.179 23.91-24.114 47.4-19.957 23.493 4.158 40.36 19.837 37.671 35.015-2.685 15.182-23.909 24.117-47.402 19.96z" fill="#5A3703"/><path d="M492.65 573.715c.816 2.484-3.41 6.106-9.436 8.09-6.03 1.983-11.58 1.58-12.396-.902-.82-2.483 3.405-6.105 9.435-8.09 6.03-1.983 11.58-1.579 12.396.902z" fill="#FFF" opacity=".6"/><path d="M515.312 537.465c-36.943-.482-73.55 4.597-96.628 14.398a8.777 8.777 0 0 1-6.86-16.159c26.272-11.159 65.653-16.287 103.716-15.79 37.967.495 76.64 6.615 101.189 19.474a8.777 8.777 0 1 1-8.145 15.55C587.706 544 552.35 537.95 515.312 537.465z" fill="#480D21" opacity=".2"/><path d="M367.256 538.124a8.786 8.786 0 1 0 0-17.572 8.786 8.786 0 0 0 0 17.572zm286.638 0a8.786 8.786 0 1 0 .003-17.575 8.786 8.786 0 0 0-.003 17.575z" fill="#FFF"/><path d="M150.935 955.044c-22.534 10.59-67.74 20.146-68.28-26.367-.676-58.14 27.042-168.334 145.349-137.912 118.307 30.422 131.15 121.01 125.741 137.912-5.407 16.902-16.899 40.562-54.757 26.367-9.24 22.534-37.59 57.057-77.07 14.871-15.096 13.298-50.433 28.936-70.983-14.871zm725.036 0c22.533 10.59 67.739 20.146 68.28-26.367.676-58.14-27.042-168.334-145.35-137.912-118.307 30.422-131.15 121.01-125.744 137.912 5.41 16.902 16.902 40.562 54.76 26.367 9.24 22.534 37.587 57.057 77.07 14.871 15.097 13.298 50.433 28.936 70.984-14.871z" fill="#FFF2DF"/><path d="M97.28 928.508c-.316-27.408 6.194-66.054 25.427-93.626 9.421-13.502 21.668-24.07 37.56-29.822 15.908-5.76 36.745-7.16 64.091-.126 55.566 14.286 85.118 42.245 100.402 67.444 7.739 12.759 11.943 25.018 13.918 34.795.989 4.895 1.395 9.044 1.445 12.203.047 3.178-.272 4.67-.307 4.83l-.003.015c-2.583 8.078-5.7 14.31-10.094 17.628-3.13 2.364-9.824 5.412-25.597-.503l-13.286-4.983-5.383 13.13c-4.011 9.784-11.498 20.089-19.865 24.012-3.666 1.715-7.601 2.294-12.318.969-5.02-1.408-12.001-5.287-20.67-14.553l-9.699-10.363-10.65 9.38c-6.047 5.325-15.388 10.266-23.885 10.328a19.09 19.09 0 0 1-11.43-3.55c-3.857-2.688-8.435-7.67-12.757-16.886l-6.22-13.25-13.247 6.225c-10.188 4.79-23.991 8.485-34.023 6.998-4.58-.678-7.373-2.27-9.17-4.377-1.831-2.153-4.128-6.615-4.236-15.918zm134.366-151.91c-31.802-8.18-58.8-7.211-81.34.952-22.558 8.168-39.38 23.08-51.595 40.59-24.032 34.457-31.042 79.975-30.685 110.707.164 13.953 3.718 25.74 11.217 34.547 7.54 8.85 17.554 12.929 27.16 14.35 12.931 1.917 26.723-.687 38.063-4.426 4.593 6.831 9.857 12.3 15.743 16.401a48.347 48.347 0 0 0 28.368 8.804c12.142-.088 23.289-4.412 32.042-9.658 8.087 6.808 16.335 11.42 24.746 13.777 11.99 3.365 23.122 1.811 32.636-2.645 12.844-6.018 22.283-17.036 28.535-27.487 16.372 3.508 30.056.81 40.814-7.314 12.17-9.19 17.507-23.239 20.33-32.06 2.487-7.774 2.142-19.55-.324-31.756-2.607-12.91-7.993-28.37-17.581-44.175-19.362-31.925-55.387-64.474-118.129-80.606zm697.976 151.91c.32-27.408-6.19-66.054-25.424-93.626-9.418-13.502-21.67-24.07-37.56-29.822-15.908-5.76-36.745-7.16-64.094-.126-55.562 14.286-85.115 42.245-100.399 67.444-7.738 12.759-11.943 25.018-13.918 34.795-.988 4.895-1.395 9.044-1.445 12.203-.05 3.178.272 4.67.307 4.83a.082.082 0 0 1 .003.015c2.584 8.078 5.7 14.31 10.094 17.628 3.13 2.364 9.825 5.412 25.594-.503l13.289-4.983 5.383 13.13c4.011 9.784 11.498 20.089 19.866 24.012 3.666 1.715 7.6 2.294 12.32.969 5.017-1.408 11.998-5.287 20.667-14.553l9.699-10.363 10.65 9.38c6.044 5.325 15.386 10.266 23.885 10.328a19.09 19.09 0 0 0 11.43-3.55c3.857-2.688 8.436-7.67 12.757-16.886l6.22-13.25 13.248 6.225c10.187 4.79 23.99 8.485 34.02 6.998 4.581-.678 7.375-2.27 9.172-4.377 1.831-2.153 4.128-6.615 4.236-15.918zM795.26 776.598c31.805-8.18 58.798-7.211 81.34.952 22.56 8.168 39.378 23.08 51.596 40.59 24.031 34.457 31.041 79.975 30.684 110.707-.163 13.953-3.718 25.74-11.22 34.547-7.536 8.85-17.551 12.929-27.156 14.35-12.932 1.917-26.724-.687-38.06-4.426-4.6 6.831-9.86 12.3-15.747 16.401a48.345 48.345 0 0 1-28.368 8.804c-12.141-.088-23.288-4.412-32.042-9.658-8.087 6.808-16.334 11.42-24.746 13.777-11.99 3.365-23.122 1.811-32.636-2.645-12.844-6.018-22.282-17.036-28.535-27.487-16.372 3.508-30.055.81-40.813-7.314-12.171-9.19-17.508-23.239-20.331-32.06-2.487-7.774-2.142-19.55.325-31.756 2.606-12.91 7.993-28.37 17.58-44.175 19.363-31.925 55.384-64.474 118.129-80.606z" fill="#835104"/><path d="M200.014 377.973c-21.917 1.124 18.08-238.446 89.632-239.002 11.776.697 74.143 78.328 71.68 100.938-1.378 12.639-37.727 39.854-77.292 69.47-31.203 23.36-64.4 48.21-84.02 68.594zm608.838 7.832c21.913 1.124-21.967-240.426-93.515-240.982-11.776.693-70.26 80.308-67.8 102.918 1.378 12.639 37.73 39.854 77.294 69.47 31.2 23.357 64.4 48.21 84.02 68.594z" fill="#ECC48B"/></svg>